# WaveFront *.obj file (generated by Autodesk ATF)

mtllib floor.mtl

g Body1

v -10.000000 0.433013 4.250000
v -10.000000 0.000000 5.000000
v -9.024548 0.000000 5.096074
v -8.086583 0.000000 5.380602
v -7.222149 0.000000 5.842652
v -6.464466 0.000000 6.464466
v -5.842652 0.000000 7.222149
v -5.380602 0.000000 8.086583
v -5.096074 0.000000 9.024548
v -5.000000 0.000000 10.000000
v -4.250000 0.433013 10.000000
v -4.360485 0.433013 8.878231
v -4.687693 0.433013 7.799570
v -5.219050 0.433013 6.805471
v -5.934136 0.433013 5.934136
v -6.805471 0.433013 5.219050
v -7.799570 0.433013 4.687693
v -8.878231 0.433013 4.360485
v -10.000000 0.433013 3.750000
v -10.000000 0.492404 3.913176
v -10.000000 0.492404 4.086824
v -4.086824 0.492404 10.000000
v -3.913176 0.492404 10.000000
v -3.750000 0.433013 10.000000
v -3.844952 0.433013 8.914699
v -4.126921 0.433013 7.862374
v -4.587341 0.433013 6.875000
v -5.212222 0.433013 5.982577
v -5.982577 0.433013 5.212222
v -6.875000 0.433013 4.587341
v -7.862374 0.433013 4.126921
v -8.914699 0.433013 3.844952
v -8.958111 0.500000 4.091153
v -7.947879 0.500000 4.361844
v -7.000000 0.500000 4.803848
v -6.143274 0.500000 5.403733
v -5.403733 0.500000 6.143274
v -4.803848 0.500000 7.000000
v -4.361844 0.500000 7.947879
v -4.091153 0.500000 8.958111
v -10.000000 0.000000 3.000000
v -3.000000 0.000000 10.000000
v -3.106346 0.000000 8.784463
v -3.422152 0.000000 7.605859
v -3.937822 0.000000 6.500000
v -4.637689 0.000000 5.500487
v -5.500487 0.000000 4.637689
v -6.500000 0.000000 3.937822
v -7.605859 0.000000 3.422152
v -8.784463 0.000000 3.106346
v 9.000000 0.000000 10.000000
v 9.382683 0.000000 9.923880
v 9.707107 0.000000 9.707107
v 9.923880 0.000000 9.382683
v 10.000000 0.000000 9.000000
v 10.000000 0.000000 -9.000000
v 9.923880 0.000000 -9.382683
v 9.707107 0.000000 -9.707107
v 9.382683 0.000000 -9.923880
v 9.000000 0.000000 -10.000000
v -9.000000 0.000000 -10.000000
v -9.382683 0.000000 -9.923880
v -9.707107 0.000000 -9.707107
v -9.923880 0.000000 -9.382683
v -10.000000 0.000000 -9.000000
v -10.000000 0.000000 9.000000
v -9.923880 0.000000 9.382683
v -9.707107 0.000000 9.707107
v -9.382683 0.000000 9.923880
v -9.000000 0.000000 10.000000
v 10.000000 -1.000000 -9.000000
v 9.923880 -1.000000 -9.382683
v 9.707107 -1.000000 -9.707107
v 9.382683 -1.000000 -9.923880
v 9.000000 -1.000000 -10.000000
v 10.000000 -1.000000 9.000000
v -9.000000 -1.000000 -10.000000
v -9.382683 -1.000000 -9.923880
v -9.707107 -1.000000 -9.707107
v -9.923880 -1.000000 -9.382683
v -10.000000 -1.000000 -9.000000
v -10.000000 -1.000000 9.000000
v -9.923880 -1.000000 9.382683
v -9.707107 -1.000000 9.707107
v -9.382683 -1.000000 9.923880
v -9.000000 -1.000000 10.000000
v 9.000000 -1.000000 10.000000
v 9.382683 -1.000000 9.923880
v 9.707107 -1.000000 9.707107
v 9.923880 -1.000000 9.382683
vt -0.043301 0.000000 0.000000
vt 0.043301 0.000000 0.000000
vt -0.043301 0.105538 0.000000
vt 0.043301 0.105538 0.000000
vt -0.043301 0.211076 0.000000
vt 0.043301 0.211076 0.000000
vt -0.043301 0.316614 0.000000
vt 0.043301 0.316614 0.000000
vt -0.043301 0.422152 0.000000
vt 0.043301 0.422152 0.000000
vt -0.043301 0.527689 0.000000
vt 0.043301 0.527689 0.000000
vt -0.043301 0.633227 0.000000
vt 0.043301 0.633227 0.000000
vt -0.043301 0.738765 0.000000
vt 0.043301 0.738765 0.000000
vt -0.043301 0.844303 0.000000
vt 0.043301 0.844303 0.000000
vt 0.052360 0.000000 0.000000
vt 0.069813 0.000000 0.000000
vt 0.052360 0.104720 0.000000
vt 0.078540 0.104720 0.000000
vt 0.052360 0.209440 0.000000
vt 0.078540 0.209440 0.000000
vt 0.052360 0.314159 0.000000
vt 0.078540 0.314159 0.000000
vt 0.052360 0.418879 0.000000
vt 0.078540 0.418879 0.000000
vt 0.052360 0.523599 0.000000
vt 0.078540 0.523599 0.000000
vt 0.052360 0.628319 0.000000
vt 0.078540 0.628319 0.000000
vt 0.052360 0.733038 0.000000
vt 0.078540 0.733038 0.000000
vt 0.052360 0.837758 0.000000
vt 0.078540 0.837758 0.000000
vt 0.069813 0.942478 0.000000
vt 0.087266 0.942478 0.000000
vt 0.104720 0.824668 0.000000
vt 0.104720 0.942478 0.000000
vt 0.087266 0.000000 0.000000
vt 0.104720 0.117810 0.000000
vt 0.104720 0.235619 0.000000
vt 0.104720 0.353429 0.000000
vt 0.104720 0.471239 0.000000
vt 0.104720 0.589049 0.000000
vt 0.104720 0.706858 0.000000
vt 0.104720 0.000000 0.000000
vt 0.052360 0.942478 0.000000
vt -0.043301 0.000000 0.000000
vt 0.043301 0.000000 0.000000
vt -0.043301 0.115628 0.000000
vt 0.043301 0.115628 0.000000
vt -0.043301 0.231256 0.000000
vt 0.043301 0.231256 0.000000
vt -0.043301 0.346884 0.000000
vt 0.043301 0.346884 0.000000
vt -0.043301 0.462512 0.000000
vt 0.043301 0.462512 0.000000
vt -0.043301 0.578140 0.000000
vt 0.043301 0.578140 0.000000
vt -0.043301 0.693768 0.000000
vt 0.043301 0.693768 0.000000
vt -0.043301 0.809396 0.000000
vt 0.043301 0.809396 0.000000
vt -0.043301 0.925025 0.000000
vt 0.043301 0.925025 0.000000
vt -0.043301 1.040653 0.000000
vt 0.043301 1.040653 0.000000
vt -1.000000 -0.300000 0.000000
vt -0.878446 -0.310635 0.000000
vt -1.000000 0.900000 0.000000
vt -0.760586 -0.342215 0.000000
vt -0.900000 1.000000 0.000000
vt -0.650000 -0.393782 0.000000
vt 0.900000 1.000000 0.000000
vt -0.550049 -0.463769 0.000000
vt 1.000000 0.900000 0.000000
vt -0.463769 -0.550049 0.000000
vt -0.393782 -0.650000 0.000000
vt 1.000000 -0.900000 0.000000
vt -0.342215 -0.760586 0.000000
vt 0.900000 -1.000000 0.000000
vt -0.310635 -0.878446 0.000000
vt -0.300000 -1.000000 0.000000
vt 0.938268 -0.992388 0.000000
vt 0.970711 -0.970711 0.000000
vt 0.992388 -0.938268 0.000000
vt 0.992388 0.938268 0.000000
vt 0.970711 0.970711 0.000000
vt 0.938268 0.992388 0.000000
vt -0.938268 0.992388 0.000000
vt -0.970711 0.970711 0.000000
vt -0.992388 0.938268 0.000000
vt -0.500000 -1.000000 0.000000
vt -0.509607 -0.902455 0.000000
vt -0.900000 -1.000000 0.000000
vt -0.538060 -0.808658 0.000000
vt -0.584265 -0.722215 0.000000
vt -0.646447 -0.646447 0.000000
vt -1.000000 -0.900000 0.000000
vt -0.938268 -0.992388 0.000000
vt -0.970711 -0.970711 0.000000
vt -0.992388 -0.938268 0.000000
vt -0.722215 -0.584265 0.000000
vt -0.808658 -0.538060 0.000000
vt -0.902455 -0.509607 0.000000
vt -1.000000 -0.500000 0.000000
vt -0.000000 0.078540 0.000000
vt -0.100000 0.078540 0.000000
vt -0.000000 0.039270 0.000000
vt -0.100000 0.039270 0.000000
vt -0.000000 0.000000 0.000000
vt -0.100000 0.000000 0.000000
vt -0.000000 -0.039270 0.000000
vt -0.100000 -0.039270 0.000000
vt -0.000000 -0.078540 0.000000
vt -0.100000 -0.078540 0.000000
vt 0.100000 0.000000 0.000000
vt 1.900000 0.000000 0.000000
vt 0.100000 0.100000 0.000000
vt 1.900000 0.100000 0.000000
vt -0.000000 0.078540 0.000000
vt -0.100000 0.078540 0.000000
vt -0.000000 0.039270 0.000000
vt -0.100000 0.039270 0.000000
vt 0.000000 -0.000000 0.000000
vt -0.100000 -0.000000 0.000000
vt -0.000000 -0.039270 0.000000
vt -0.100000 -0.039270 0.000000
vt -0.000000 -0.078540 0.000000
vt -0.100000 -0.078540 0.000000
vt 1.900000 0.000000 0.000000
vt 1.900000 0.100000 0.000000
vt 0.700000 -0.000000 0.000000
vt 0.100000 0.100000 0.000000
vt 0.500000 -0.000000 0.000000
vt 0.100000 0.000000 0.000000
vt 0.625000 -0.043301 0.000000
vt 0.575000 -0.043301 0.000000
vt 0.608682 -0.049240 0.000000
vt 0.591318 -0.049240 0.000000
vt -0.000000 0.078540 0.000000
vt -0.100000 0.078540 0.000000
vt -0.000000 0.039270 0.000000
vt -0.100000 0.039270 0.000000
vt -0.000000 0.000000 0.000000
vt -0.100000 0.000000 0.000000
vt -0.000000 -0.039270 0.000000
vt -0.100000 -0.039270 0.000000
vt -0.000000 -0.078540 0.000000
vt -0.100000 -0.078540 0.000000
vt -0.000000 0.078540 0.000000
vt -0.100000 0.078540 0.000000
vt -0.000000 0.039270 0.000000
vt -0.100000 0.039270 0.000000
vt -0.000000 -0.000000 0.000000
vt -0.100000 -0.000000 0.000000
vt -0.000000 -0.039270 0.000000
vt -0.100000 -0.039270 0.000000
vt -0.000000 -0.078540 0.000000
vt -0.100000 -0.078540 0.000000
vt 1.900000 0.100000 0.000000
vt 0.100000 0.100000 0.000000
vt 1.900000 0.000000 0.000000
vt 0.100000 0.000000 0.000000
vt 1.900000 -0.000000 0.000000
vt 1.900000 0.100000 0.000000
vt 1.500000 -0.000000 0.000000
vt 1.300000 -0.000000 0.000000
vt 1.425000 -0.043301 0.000000
vt 1.375000 -0.043301 0.000000
vt 1.408682 -0.049240 0.000000
vt 1.391318 -0.049240 0.000000
vt 0.100000 0.100000 0.000000
vt 0.100000 0.000000 0.000000
vt 0.992388 0.938268 0.000000
vt 0.900000 1.000000 0.000000
vt 1.000000 0.900000 0.000000
vt -0.900000 1.000000 0.000000
vt 1.000000 -0.900000 0.000000
vt -1.000000 0.900000 0.000000
vt 0.900000 -1.000000 0.000000
vt -1.000000 -0.900000 0.000000
vt -0.900000 -1.000000 0.000000
vt -0.938268 -0.992388 0.000000
vt -0.970711 -0.970711 0.000000
vt -0.992388 -0.938268 0.000000
vt 0.970711 0.970711 0.000000
vt 0.938268 0.992388 0.000000
vt -0.938268 0.992388 0.000000
vt -0.970711 0.970711 0.000000
vt -0.992388 0.938268 0.000000
vt 0.938268 -0.992388 0.000000
vt 0.970711 -0.970711 0.000000
vt 0.992388 -0.938268 0.000000
vn 0.000000 0.086603 0.050000
vn 0.000000 0.086603 0.050000
vn -0.009755 0.086603 0.049039
vn -0.009755 0.086603 0.049039
vn -0.019134 0.086603 0.046194
vn -0.019134 0.086603 0.046194
vn -0.027779 0.086603 0.041573
vn -0.027779 0.086603 0.041573
vn -0.035355 0.086603 0.035355
vn -0.035355 0.086603 0.035355
vn -0.041573 0.086603 0.027779
vn -0.041573 0.086603 0.027779
vn -0.046194 0.086603 0.019134
vn -0.046194 0.086603 0.019134
vn -0.049039 0.086603 0.009755
vn -0.049039 0.086603 0.009755
vn -0.050000 0.086603 0.000000
vn -0.050000 0.086603 0.000000
vn -0.000000 0.086603 -0.050000
vn -0.000000 0.098481 -0.017365
vn 0.008682 0.086603 -0.049240
vn 0.000000 0.100000 -0.000000
vn 0.017101 0.086603 -0.046985
vn 0.000000 0.100000 -0.000000
vn 0.025000 0.086603 -0.043301
vn 0.000000 0.100000 -0.000000
vn 0.032139 0.086603 -0.038302
vn 0.000000 0.100000 -0.000000
vn 0.038302 0.086603 -0.032139
vn 0.000000 0.100000 -0.000000
vn 0.043301 0.086603 -0.025000
vn 0.000000 0.100000 -0.000000
vn 0.046985 0.086603 -0.017101
vn 0.000000 0.100000 -0.000000
vn 0.049240 0.086603 -0.008682
vn 0.000000 0.100000 -0.000000
vn 0.017365 0.098481 -0.000000
vn -0.017365 0.098481 0.000000
vn 0.000000 0.098481 0.017365
vn 0.050000 0.086603 -0.000000
vn -0.000000 0.086603 -0.050000
vn 0.008682 0.086603 -0.049240
vn 0.017101 0.086603 -0.046985
vn 0.025000 0.086603 -0.043301
vn 0.032139 0.086603 -0.038302
vn 0.038302 0.086603 -0.032139
vn 0.043301 0.086603 -0.025000
vn 0.046985 0.086603 -0.017101
vn 0.049240 0.086603 -0.008682
vn 0.050000 0.086603 -0.000000
vn 0.000000 0.100000 0.000000
vn 0.000000 0.100000 0.000000
vn 0.000000 0.100000 0.000000
vn 0.000000 0.100000 0.000000
vn 0.000000 0.100000 0.000000
vn 0.000000 0.100000 0.000000
vn 0.000000 0.100000 0.000000
vn 0.000000 0.100000 0.000000
vn 0.000000 0.100000 0.000000
vn 0.000000 0.100000 0.000000
vn 0.000000 0.100000 0.000000
vn 0.000000 0.100000 0.000000
vn 0.000000 0.100000 0.000000
vn 0.000000 0.100000 0.000000
vn 0.000000 0.100000 0.000000
vn 0.000000 0.100000 0.000000
vn 0.000000 0.100000 0.000000
vn 0.000000 0.100000 0.000000
vn 0.000000 0.100000 0.000000
vn 0.000000 0.100000 0.000000
vn 0.000000 0.100000 0.000000
vn 0.000000 0.100000 0.000000
vn 0.000000 0.100000 0.000000
vn 0.000000 0.100000 0.000000
vn 0.000000 0.100000 0.000000
vn 0.000000 0.100000 0.000000
vn 0.000000 0.100000 0.000000
vn 0.000000 0.100000 0.000000
vn 0.000000 0.100000 0.000000
vn 0.000000 0.100000 0.000000
vn 0.000000 0.100000 0.000000
vn 0.000000 0.100000 0.000000
vn 0.000000 0.100000 0.000000
vn 0.000000 0.100000 0.000000
vn 0.000000 0.100000 0.000000
vn 0.000000 0.100000 0.000000
vn 0.000000 0.100000 0.000000
vn 0.000000 0.100000 0.000000
vn 0.000000 0.100000 0.000000
vn 0.100000 0.000000 0.000000
vn 0.100000 0.000000 0.000000
vn 0.092388 0.000000 -0.038268
vn 0.092388 0.000000 -0.038268
vn 0.070711 0.000000 -0.070711
vn 0.070711 0.000000 -0.070711
vn 0.038268 0.000000 -0.092388
vn 0.038268 0.000000 -0.092388
vn 0.000000 0.000000 -0.100000
vn 0.000000 0.000000 -0.100000
vn 0.100000 0.000000 0.000000
vn 0.100000 0.000000 0.000000
vn 0.000000 0.000000 -0.100000
vn 0.000000 0.000000 -0.100000
vn -0.038268 0.000000 -0.092388
vn -0.038268 0.000000 -0.092388
vn -0.070711 0.000000 -0.070711
vn -0.070711 0.000000 -0.070711
vn -0.092388 0.000000 -0.038268
vn -0.092388 0.000000 -0.038268
vn -0.100000 0.000000 0.000000
vn -0.100000 0.000000 0.000000
vn -0.100000 0.000000 0.000000
vn -0.100000 0.000000 0.000000
vn -0.100000 0.000000 0.000000
vn -0.100000 0.000000 0.000000
vn -0.100000 0.000000 0.000000
vn -0.100000 0.000000 0.000000
vn -0.100000 0.000000 0.000000
vn -0.100000 0.000000 0.000000
vn -0.092388 0.000000 0.038268
vn -0.092388 0.000000 0.038268
vn -0.070711 0.000000 0.070711
vn -0.070711 0.000000 0.070711
vn -0.038268 0.000000 0.092388
vn -0.038268 0.000000 0.092388
vn 0.000000 0.000000 0.100000
vn 0.000000 0.000000 0.100000
vn 0.000000 0.000000 0.100000
vn 0.000000 0.000000 0.100000
vn 0.038268 0.000000 0.092388
vn 0.038268 0.000000 0.092388
vn 0.070711 0.000000 0.070711
vn 0.070711 0.000000 0.070711
vn 0.092388 0.000000 0.038268
vn 0.092388 0.000000 0.038268
vn -0.000000 0.000000 0.100000
vn -0.000000 0.000000 0.100000
vn -0.000000 0.000000 0.100000
vn -0.000000 0.000000 0.100000
vn -0.000000 0.000000 0.100000
vn -0.000000 0.000000 0.100000
vn 0.000000 -0.100000 0.000000
vn 0.000000 -0.100000 0.000000
vn 0.000000 -0.100000 0.000000
vn 0.000000 -0.100000 0.000000
vn 0.000000 -0.100000 0.000000
vn 0.000000 -0.100000 0.000000
vn 0.000000 -0.100000 0.000000
vn 0.000000 -0.100000 0.000000
vn 0.000000 -0.100000 0.000000
vn 0.000000 -0.100000 0.000000
vn 0.000000 -0.100000 0.000000
vn 0.000000 -0.100000 0.000000
vn 0.000000 -0.100000 0.000000
vn 0.000000 -0.100000 0.000000
vn 0.000000 -0.100000 0.000000
vn 0.000000 -0.100000 0.000000
vn 0.000000 -0.100000 0.000000
vn 0.000000 -0.100000 0.000000
vn 0.000000 -0.100000 0.000000
vn 0.000000 -0.100000 0.000000
usemtl Steel_-_Satin
f 1/1/1 2/2/2 18/3/3
f 18/3/3 2/2/2 3/4/4
f 18/3/3 3/4/4 17/5/5
f 17/5/5 3/4/4 4/6/6
f 17/5/5 4/6/6 16/7/7
f 16/7/7 4/6/6 5/8/8
f 16/7/7 5/8/8 15/9/9
f 15/9/9 5/8/8 6/10/10
f 15/9/9 6/10/10 14/11/11
f 14/11/11 6/10/10 7/12/12
f 14/11/11 7/12/12 13/13/13
f 13/13/13 7/12/12 8/14/14
f 13/13/13 8/14/14 12/15/15
f 12/15/15 8/14/14 9/16/16
f 12/15/15 9/16/16 11/17/17
f 11/17/17 9/16/16 10/18/18
f 19/19/19 20/20/20 32/21/21
f 32/21/21 20/20/20 33/22/22
f 32/21/21 33/22/22 31/23/23
f 31/23/23 33/22/22 34/24/24
f 31/23/23 34/24/24 30/25/25
f 30/25/25 34/24/24 35/26/26
f 30/25/25 35/26/26 29/27/27
f 29/27/27 35/26/26 36/28/28
f 29/27/27 36/28/28 28/29/29
f 28/29/29 36/28/28 37/30/30
f 28/29/29 37/30/30 27/31/31
f 27/31/31 37/30/30 38/32/32
f 27/31/31 38/32/32 26/33/33
f 26/33/33 38/32/32 39/34/34
f 26/33/33 39/34/34 25/35/35
f 25/35/35 39/34/34 40/36/36
f 25/35/35 40/36/36 23/37/37
f 23/37/37 40/36/36 22/38/38
f 22/38/38 40/36/36 12/39/15
f 22/38/38 12/39/15 11/40/17
f 20/20/20 21/41/39 33/22/22
f 33/22/22 21/41/39 18/42/3
f 33/22/22 18/42/3 34/24/24
f 34/24/24 18/42/3 17/43/5
f 34/24/24 17/43/5 35/26/26
f 35/26/26 17/43/5 16/44/7
f 35/26/26 16/44/7 36/28/28
f 36/28/28 16/44/7 15/45/9
f 36/28/28 15/45/9 37/30/30
f 37/30/30 15/45/9 14/46/11
f 37/30/30 14/46/11 38/32/32
f 38/32/32 14/46/11 13/47/13
f 38/32/32 13/47/13 39/34/34
f 39/34/34 13/47/13 12/39/15
f 39/34/34 12/39/15 40/36/36
f 21/41/39 1/48/1 18/42/3
f 23/37/37 24/49/40 25/35/35
f 41/50/41 19/51/19 50/52/42
f 50/52/42 19/51/19 32/53/21
f 50/52/42 32/53/21 49/54/43
f 49/54/43 32/53/21 31/55/23
f 49/54/43 31/55/23 48/56/44
f 48/56/44 31/55/23 30/57/25
f 48/56/44 30/57/25 47/58/45
f 47/58/45 30/57/25 29/59/27
f 47/58/45 29/59/27 46/60/46
f 46/60/46 29/59/27 28/61/29
f 46/60/46 28/61/29 45/62/47
f 45/62/47 28/61/29 27/63/31
f 45/62/47 27/63/31 44/64/48
f 44/64/48 27/63/31 26/65/33
f 44/64/48 26/65/33 43/66/49
f 43/66/49 26/65/33 25/67/35
f 43/66/49 25/67/35 42/68/50
f 42/68/50 25/67/35 24/69/40
f 41/70/51 50/71/52 65/72/53
f 65/72/53 50/71/52 49/73/54
f 65/72/53 49/73/54 61/74/55
f 61/74/55 49/73/54 48/75/56
f 61/74/55 48/75/56 60/76/57
f 60/76/57 48/75/56 47/77/58
f 60/76/57 47/77/58 56/78/59
f 56/78/59 47/77/58 46/79/60
f 56/78/59 46/79/60 45/80/61
f 56/78/59 45/80/61 55/81/62
f 55/81/62 45/80/61 44/82/63
f 55/81/62 44/82/63 51/83/64
f 51/83/64 44/82/63 43/84/65
f 51/83/64 43/84/65 42/85/66
f 51/83/64 52/86/67 55/81/62
f 55/81/62 52/86/67 53/87/68
f 55/81/62 53/87/68 54/88/69
f 56/78/59 57/89/70 60/76/57
f 60/76/57 57/89/70 58/90/71
f 60/76/57 58/90/71 59/91/72
f 62/92/73 63/93/74 61/74/55
f 61/74/55 63/93/74 64/94/75
f 61/74/55 64/94/75 65/72/53
f 10/95/76 9/96/77 70/97/78
f 70/97/78 9/96/77 8/98/79
f 70/97/78 8/98/79 7/99/80
f 7/99/80 6/100/81 70/97/78
f 70/97/78 6/100/81 66/101/82
f 70/97/78 66/101/82 69/102/83
f 69/102/83 66/101/82 68/103/84
f 68/103/84 66/101/82 67/104/85
f 6/100/81 5/105/86 66/101/82
f 66/101/82 5/105/86 4/106/87
f 66/101/82 4/106/87 3/107/88
f 3/107/88 2/108/89 66/101/82
f 56/109/90 71/110/91 57/111/92
f 57/111/92 71/110/91 72/112/93
f 57/111/92 72/112/93 58/113/94
f 58/113/94 72/112/93 73/114/95
f 58/113/94 73/114/95 59/115/96
f 59/115/96 73/114/95 74/116/97
f 59/115/96 74/116/97 60/117/98
f 60/117/98 74/116/97 75/118/99
f 56/119/90 55/120/100 71/121/91
f 71/121/91 55/120/100 76/122/101
f 61/123/102 77/124/103 62/125/104
f 62/125/104 77/124/103 78/126/105
f 62/125/104 78/126/105 63/127/106
f 63/127/106 78/126/105 79/128/107
f 63/127/106 79/128/107 64/129/108
f 64/129/108 79/128/107 80/130/109
f 64/129/108 80/130/109 65/131/110
f 65/131/110 80/130/109 81/132/111
f 65/133/110 81/134/111 41/135/112
f 41/135/112 81/134/111 82/136/113
f 41/135/112 82/136/113 2/137/114
f 2/137/114 82/136/113 66/138/115
f 41/135/112 2/137/114 19/139/116
f 19/139/116 2/137/114 1/140/117
f 19/139/116 1/140/117 20/141/118
f 20/141/118 1/140/117 21/142/119
f 66/143/115 82/144/113 67/145/120
f 67/145/120 82/144/113 83/146/121
f 67/145/120 83/146/121 68/147/122
f 68/147/122 83/146/121 84/148/123
f 68/147/122 84/148/123 69/149/124
f 69/149/124 84/148/123 85/150/125
f 69/149/124 85/150/125 70/151/126
f 70/151/126 85/150/125 86/152/127
f 51/153/128 87/154/129 52/155/130
f 52/155/130 87/154/129 88/156/131
f 52/155/130 88/156/131 53/157/132
f 53/157/132 88/156/131 89/158/133
f 53/157/132 89/158/133 54/159/134
f 54/159/134 89/158/133 90/160/135
f 54/159/134 90/160/135 55/161/100
f 55/161/100 90/160/135 76/162/101
f 75/163/99 77/164/103 60/165/98
f 60/165/98 77/164/103 61/166/102
f 70/167/126 86/168/127 10/169/136
f 10/169/136 86/168/127 42/170/137
f 10/169/136 42/170/137 11/171/138
f 11/171/138 42/170/137 24/172/139
f 11/171/138 24/172/139 22/173/140
f 22/173/140 24/172/139 23/174/141
f 86/168/127 87/175/129 42/170/137
f 42/170/137 87/175/129 51/176/128
f 74/177/142 71/178/143 75/179/144
f 75/179/144 71/178/143 76/180/145
f 75/179/144 76/180/145 77/181/146
f 77/181/146 76/180/145 87/182/147
f 77/181/146 87/182/147 81/183/148
f 81/183/148 87/182/147 86/184/149
f 81/183/148 86/184/149 82/185/150
f 82/185/150 86/184/149 83/186/151
f 83/186/151 86/184/149 84/187/152
f 84/187/152 86/184/149 85/188/153
f 74/177/142 73/189/154 71/178/143
f 71/178/143 73/189/154 72/190/155
f 90/191/156 89/192/157 76/180/145
f 76/180/145 89/192/157 88/193/158
f 76/180/145 88/193/158 87/182/147
f 81/183/148 80/194/159 77/181/146
f 77/181/146 80/194/159 79/195/160
f 77/181/146 79/195/160 78/196/161
# 90 vertices
# 196 texture params
# 161 normals
# 176 facets

# 1 groups
